<svg xmlns="http://www.w3.org/2000/svg" viewBox="0 0 389.75 431.55"><defs><style>.cls-1{fill:#fff;}</style></defs><g id="Capa_2" data-name="Capa 2"><g id="Capa_1-2" data-name="Capa 1"><path class="cls-1" d="M372.56,160.94a3.2,3.2,0,0,0-2-3.09A3.93,3.93,0,0,0,373,153.9a4.14,4.14,0,0,0-1.55-3.45,6.82,6.82,0,0,0-4.31-1.22h-7.1v16.71H363v-6.71h4.54a2.24,2.24,0,0,1,1.68.53,3.27,3.27,0,0,1,.62,1.9l.13,1.71a4.74,4.74,0,0,0,.66,2.57h3a5.15,5.15,0,0,1-.79-2.57Zm-5.13-4.34H363v-4.74h4.21c1.93,0,2.9.79,2.9,2.37S369.19,156.6,367.43,156.6Z"/><path class="cls-1" d="M377.76,146.73a16.7,16.7,0,0,0-22.89,0,15.41,15.41,0,0,0,0,22.1,16.7,16.7,0,0,0,22.89,0,15.57,15.57,0,0,0,0-22.1Zm-2.37,19.93a13.27,13.27,0,0,1-18.22,0,12.63,12.63,0,0,1,0-17.82,13.27,13.27,0,0,1,18.22,0,12.6,12.6,0,0,1,0,17.82Z"/><path class="cls-1" d="M378.93,340.86a9.75,9.75,0,0,1-3.28.73q3.9,2.7,3.9,8.63a10.86,10.86,0,0,1-2.13,7,7.22,7.22,0,0,1-5.93,2.63q-7.33,0-8.37-10.3l-.37-4.06a6,6,0,0,0-1-2.91,2.53,2.53,0,0,0-2.1-.89,2.92,2.92,0,0,0-2.53,1.12,6.75,6.75,0,0,0-.8,3.77,6.83,6.83,0,0,0,1,4.11,4.46,4.46,0,0,0,3.3,1.46v6.45q-9.15-.57-9.15-12.07,0-11.18,8.06-11.18h14.3q3.54,0,5.1-1.09Zm-5.75,2.81a6.13,6.13,0,0,0-4.86-1.93h-2.45a5.69,5.69,0,0,1,1.1,3.07l.41,3.54a7.4,7.4,0,0,0,1.23,3.72,3.19,3.19,0,0,0,2.62,1.12,3.27,3.27,0,0,0,2.68-1.17,5.17,5.17,0,0,0,1-3.36A7.27,7.27,0,0,0,373.18,343.67Z"/><path class="cls-1" d="M352.09,311.58v-6.34h26a11,11,0,0,1,8.58,3.46q3.12,3.45,3.12,9.8c0,3.75-.84,6.68-2.5,8.82a9.11,9.11,0,0,1-6.86,3.51v-6.45c2.87-.31,4.31-2.31,4.31-6a6.73,6.73,0,0,0-1.66-4.92,6.52,6.52,0,0,0-4.84-1.69h-3.38a9.56,9.56,0,0,1,4,8.22A11.12,11.12,0,0,1,375,328.8q-3.69,3.33-9.88,3.33t-9.94-3.33a11.06,11.06,0,0,1-3.74-8.74,9.45,9.45,0,0,1,4.31-8.48Zm19.14,1.88a11.08,11.08,0,0,0-12.17,0,6.27,6.27,0,0,0-2.18,5.09,6.17,6.17,0,0,0,2.21,5,9.25,9.25,0,0,0,6.11,1.85,9.06,9.06,0,0,0,6-1.85,6.93,6.93,0,0,0,0-10.11Z"/><path class="cls-1" d="M367.54,274.61v20.08a8.21,8.21,0,0,0,5.17-2.16,6.63,6.63,0,0,0,1.75-4.81,6.13,6.13,0,0,0-3.85-6.14v-6.29a11.16,11.16,0,0,1,6.52,4.37,13.37,13.37,0,0,1,2.42,8.11,12.77,12.77,0,0,1-3.85,9.67,14.1,14.1,0,0,1-10.19,3.7q-6.35,0-10.19-3.65a12.7,12.7,0,0,1-3.85-9.62,12.34,12.34,0,0,1,4-9.67q4-3.58,10.51-3.59Zm-4.58,20V281.16a7.85,7.85,0,0,0-4.68,2.19,6.31,6.31,0,0,0-1.71,4.58Q356.57,293.69,363,294.63Z"/><path class="cls-1" d="M354,248.79c1.68-1.68,4.07-2.52,7.15-2.52h17.79v6.55h-16.7c-3.39,0-5.09,1.69-5.09,5.05a5.71,5.71,0,0,0,1.79,4.24,6.84,6.84,0,0,0,5,1.74h15v6.55H352.09v-6.34h3.85a9.65,9.65,0,0,1-4.47-8.38A9.33,9.33,0,0,1,354,248.79Z"/><path class="cls-1" d="M375.7,238.53q-3.79,3.63-10.19,3.64t-10.24-3.64a12.59,12.59,0,0,1-3.8-9.62,13,13,0,0,1,2.78-8.59,11.17,11.17,0,0,1,7.52-3.9V223a5.86,5.86,0,0,0-3.59,2,6.11,6.11,0,0,0-1.25,3.91,5.81,5.81,0,0,0,2.21,4.81,10.11,10.11,0,0,0,6.37,1.74q4.17,0,6.37-1.77a5.81,5.81,0,0,0,2.21-4.78,6.25,6.25,0,0,0-1.32-4,5.78,5.78,0,0,0-3.83-2v-6.55a11.26,11.26,0,0,1,7.73,4,13,13,0,0,1,2.88,8.64A12.73,12.73,0,0,1,375.7,238.53Z"/><path class="cls-1" d="M352.09,195.73v-6.87l29,10.35q4.58,1.66,6.3,4.16t1.76,7.39a24.25,24.25,0,0,1-.15,2.86h-5.15v-2.5a4.06,4.06,0,0,0-4.32-4.42,17.59,17.59,0,0,0-5.41,1.25l-22.05,7.8v-7.07l6.71-2.19q7.18-2.28,15-4.26-5.88-1.56-14.93-4.32Z"/><path class="cls-1" d="M110,102.87V126.5c-8.87,2.53-13.3,3.74-22.17,6V374.32c-9.34,2.34-14,3.42-23.34,5.3V137.77c-9,1.81-13.48,2.6-22.47,3.88V118A619.31,619.31,0,0,0,110,102.87Z"/><path class="cls-1" d="M98.29,232.14c0-5.84,4.38-11.38,10.21-13,5.55-1.57,10.5,1.33,10.5,7.16s-5,12-10.5,13.56a8,8,0,0,1-7.29-1.18C99.17,237.15,98.29,235.05,98.29,232.14Zm0,52.22c0-5.54,4.38-11.67,10.21-13.33,5.55-1.57,10.5,1.91,10.5,7.46,0,5.83-5,11.68-10.5,13.26-2.92.83-5.25.6-7.29-.89S98.29,287.28,98.29,284.36Z"/><path class="cls-1" d="M134.76,328.24V219.42c9.34-2.9,14-4.41,23.34-7.42V317.91c0,6.71,1.75,11.39,10.21,8.66,9.34-3,10.79-8.73,10.79-15.44V230.31c1.09-16.72-8.06-27.92-18.67-39.48-16-17.42-26.35-28.38-25.67-53.38v-42c22.59-7.12,45.08-14.52,67.68-21.58V97.49c-14.81,4.63-29.58,9.39-44.34,14.16v21.59c-.54,15.83,8.47,23.33,18.38,33.74,17.53,18.41,25.07,32.76,26,59.46v80.23c.19,20.53-11.35,36.19-30.92,42.49l-5,1.61c-12,3.86-20.42,3.17-24.8-1.38S134.76,337.87,134.76,328.24Z"/><path class="cls-1" d="M255.83,59.15l4.09-.93c20.26-5.29,32.26,7.11,31.8,26.81V285.17c.28,20.37-11.89,34.53-31.8,38.54l-4.09.92c-19.62,5.36-32.33-4.21-31.8-24.4V191.42c9.34-2.67,14-3.94,23.34-6.25v105.9c0,6.71,1.75,11.46,10.21,9.53,9.34-2.12,10.79-7.58,10.79-14.29V210.17c1.05-17.15-8.11-29-18.67-41.33-16.5-19-26-35.39-25.67-61.15V100.1C223.81,79.48,235.3,63.62,255.83,59.15Zm9.92,87.38a29.84,29.84,0,0,1,2.62,3.25V92c0-6.71-1.45-11.76-10.79-9.63-8.46,1.93-10.21,7.68-10.21,14.39v7.3C246.59,121.48,254.25,134,265.75,146.53Z"/><path class="cls-1" d="M333.7,359.62c-115.65,2.87-218,69.07-333.7,71.93V71.92C115.66,69.05,218.05,2.86,333.7,0ZM19.44,411.4c101.61-9.38,193.21-61.13,294.82-70.51V20.14C212.65,29.52,121.05,81.27,19.44,90.66Z"/></g></g></svg>